<svg xmlns="http://www.w3.org/2000/svg" viewBox="0 0 24 24" width="100%" height="100%">
  <!-- Outer walls & roof outline -->
  <path fill-rule="evenodd" clip-rule="evenodd" d="M12 2.5c-.6 0-1.1.2-1.6.6L2.8 9.2c-.5.4-.8 1-.8 1.7V20c0 1.1.9 2 2 2h16c1.1 0 2-.9 2-2v-9.1c0-.7-.3-1.3-.8-1.7l-7.6-6.1c-.5-.4-1-.6-1.6-.6zM5 9.5A1.5 1.5 0 0 1 6.5 8h11A1.5 1.5 0 0 1 19 9.5V22H5V9.5z" fill="#2563eb"/>
  
  <!-- Roller door with three hollow slots -->
  <path fill-rule="evenodd" clip-rule="evenodd" d="M6.5 11a1.5 1.5 0 0 1 1.5-1.5h8A1.5 1.5 0 0 1 17.5 11V22H6.5V11zM8.5 11.5a.5.5 0 0 0-.5.5v1a.5.5 0 0 0 .5.5h7a.5.5 0 0 0 .5-.5v-1a.5.5 0 0 0-.5-.5h-7zm-1 3a.5.5 0 0 1 .5-.5h7a.5.5 0 0 1 .5.5v1a.5.5 0 0 1-.5.5h-7a.5.5 0 0 1-.5-.5v-1zm.5 2.5a.5.5 0 0 0-.5.5v1a.5.5 0 0 0 .5.5h7a.5.5 0 0 0 .5-.5v-1a.5.5 0 0 0-.5-.5h-7z" fill="#2563eb"/>
</svg>
